<svg width="364" height="364" viewBox="0 0 364 364" fill="none" xmlns="http://www.w3.org/2000/svg">
<circle cx="182" cy="182" r="112.84" fill="white"/>
<path d="M327.6 169.26C327.6 130.162 312.068 92.6649 284.422 65.0183C256.775 37.3717 219.278 21.84 180.18 21.84C141.082 21.84 103.585 37.3717 75.9383 65.0183C48.2917 92.6649 32.76 130.162 32.76 169.26L123.749 169.26C123.749 154.293 129.694 139.94 140.277 129.357C150.86 118.774 165.214 112.829 180.18 112.829C195.146 112.829 209.5 118.774 220.083 129.357C230.666 139.94 236.611 154.293 236.611 169.26L327.6 169.26Z" fill="#DC0A2D"/>
<path d="M32.7599 194.74C32.7599 233.838 48.2916 271.335 75.9382 298.982C103.585 326.628 141.082 342.16 180.18 342.16C219.278 342.16 256.775 326.628 284.422 298.982C312.068 271.335 327.6 233.838 327.6 194.74L236.611 194.74C236.611 209.706 230.666 224.06 220.083 234.643C209.5 245.226 195.146 251.171 180.18 251.171C165.213 251.171 150.86 245.226 140.277 234.643C129.694 224.06 123.749 209.706 123.749 194.74L32.7599 194.74Z" fill="white"/>
<path fill-rule="evenodd" clip-rule="evenodd" d="M182 364C282.516 364 364 282.516 364 182C364 81.4842 282.516 0 182 0C81.4842 0 0 81.4842 0 182C0 282.516 81.4842 364 182 364ZM38.0271 203.84C48.5645 273.892 109.01 327.6 182 327.6C254.99 327.6 315.436 273.892 325.973 203.84H251.467C242.191 233.376 214.597 254.8 182 254.8C149.403 254.8 121.809 233.376 112.533 203.84H38.0271ZM112.533 160.16C121.809 130.624 149.403 109.2 182 109.2C214.597 109.2 242.19 130.624 251.467 160.16H325.973C315.435 90.108 254.99 36.4 182 36.4C109.01 36.4 48.5645 90.108 38.0271 160.16H112.533ZM182 225.68C157.876 225.68 138.32 206.124 138.32 182C138.32 157.876 157.876 138.32 182 138.32C206.124 138.32 225.68 157.876 225.68 182C225.68 206.124 206.124 225.68 182 225.68Z" fill="#1E1E1E"/>
</svg>
