<svg width="345" height="174" viewBox="0 0 345 174" fill="none" xmlns="http://www.w3.org/2000/svg">
<path d="M279.45 172.5C279.45 144.135 268.182 116.932 248.125 96.8749C228.068 76.8179 200.865 65.55 172.5 65.55C144.135 65.55 116.932 76.8179 96.875 96.8749C76.818 116.932 65.5501 144.135 65.55 172.5L279.45 172.5Z" fill="white"/>
<path d="M310.5 160.425C310.5 123.368 295.779 87.828 269.576 61.6245C243.372 35.421 207.832 20.7 170.775 20.7C133.718 20.7 98.1781 35.421 71.9746 61.6245C45.771 87.828 31.0501 123.368 31.05 160.425H117.289C117.289 146.24 122.924 132.635 132.955 122.605C142.985 112.574 156.59 106.939 170.775 106.939C184.96 106.939 198.565 112.574 208.595 122.605C218.626 132.635 224.261 146.24 224.261 160.425H310.5Z" fill="#DC0A2D"/>
<path fill-rule="evenodd" clip-rule="evenodd" d="M331.84 106.417C340.528 127.366 345 149.822 345 172.5H337V173H220V172.5H213.9C213.9 161.52 209.538 150.99 201.774 143.226C194.01 135.462 183.48 131.1 172.5 131.1C161.52 131.1 150.99 135.462 143.226 143.226C135.462 150.99 131.1 161.52 131.1 172.5H125V173H30.0629L0.0010629 173.106C-0.0785458 150.427 4.31448 127.956 12.9288 106.977C21.5431 85.9982 34.2095 66.9239 50.2034 50.8456C66.1972 34.7673 85.2045 22.0006 106.138 13.276C127.071 4.55136 149.519 0.0400701 172.197 0.000265725C194.876 -0.0395387 217.339 4.39292 238.303 13.044C259.267 21.6951 278.319 34.395 294.369 50.4171C310.419 66.4391 323.152 85.4688 331.84 106.417ZM36.0311 152C37.673 141.07 40.6256 130.352 44.843 120.082C51.7344 103.299 61.8676 88.0391 74.6627 75.1765C87.4578 62.3139 102.664 52.1005 119.41 45.1208C136.157 38.1411 154.115 34.5321 172.258 34.5002C190.401 34.4684 208.372 38.0143 225.142 44.9352C241.913 51.8561 257.155 62.016 269.995 74.8337C282.835 87.6513 293.022 102.875 299.972 119.634C304.288 130.04 307.303 140.91 308.969 152H238.385C235.092 141.42 229.269 131.689 221.29 123.71C208.35 110.77 190.8 103.5 172.5 103.5C154.2 103.5 136.65 110.77 123.71 123.71C115.731 131.689 109.908 141.42 106.616 152H36.0311Z" fill="#1E1E1E"/>
<rect y="172" width="345" height="2" fill="#1E1E1E"/>
</svg>
