<svg width="345" height="345" viewBox="0 0 345 345" fill="none" xmlns="http://www.w3.org/2000/svg">
<circle cx="172.5" cy="172.5" r="106.95" fill="white"/>
<path d="M310.5 160.425C310.5 123.368 295.779 87.828 269.576 61.6245C243.372 35.421 207.832 20.7 170.775 20.7C133.718 20.7 98.1781 35.421 71.9746 61.6245C45.771 87.828 31.0501 123.368 31.05 160.425L117.289 160.425C117.289 146.24 122.924 132.635 132.955 122.605C142.985 112.574 156.59 106.939 170.775 106.939C184.96 106.939 198.565 112.574 208.595 122.605C218.626 132.635 224.261 146.24 224.261 160.425L310.5 160.425Z" fill="#DC0A2D"/>
<path d="M31.0499 184.575C31.0499 221.632 45.7709 257.172 71.9744 283.375C98.1779 309.579 133.718 324.3 170.775 324.3C207.832 324.3 243.372 309.579 269.575 283.375C295.779 257.172 310.5 221.632 310.5 184.575L224.261 184.575C224.261 198.76 218.625 212.365 208.595 222.395C198.564 232.426 184.96 238.061 170.775 238.061C156.59 238.061 142.985 232.426 132.955 222.395C122.924 212.365 117.289 198.76 117.289 184.575L31.0499 184.575Z" fill="white"/>
<path fill-rule="evenodd" clip-rule="evenodd" d="M172.5 345C267.769 345 345 267.769 345 172.5C345 77.2309 267.769 0 172.5 0C77.2309 0 0 77.2309 0 172.5C0 267.769 77.2309 345 172.5 345ZM36.0422 193.2C46.0296 259.595 103.32 310.5 172.5 310.5C241.68 310.5 298.97 259.595 308.958 193.2H238.341C229.549 221.194 203.396 241.5 172.5 241.5C141.604 241.5 115.451 221.194 106.659 193.2H36.0422ZM106.659 151.8C115.451 123.806 141.604 103.5 172.5 103.5C203.396 103.5 229.549 123.806 238.341 151.8H308.958C298.97 85.4045 241.68 34.5 172.5 34.5C103.32 34.5 46.0296 85.4046 36.0422 151.8H106.659ZM172.5 213.9C149.635 213.9 131.1 195.365 131.1 172.5C131.1 149.635 149.635 131.1 172.5 131.1C195.365 131.1 213.9 149.635 213.9 172.5C213.9 195.365 195.365 213.9 172.5 213.9Z" fill="#1E1E1E"/>
</svg>
