<svg width="345" height="174" viewBox="0 0 345 174" fill="none" xmlns="http://www.w3.org/2000/svg">
<path d="M279.45 1.50001C279.45 15.5449 276.684 29.4522 271.309 42.428C265.934 55.4038 258.056 67.1939 248.125 77.1251C238.194 87.0563 226.404 94.9342 213.428 100.309C200.452 105.684 186.545 108.45 172.5 108.45C158.455 108.45 144.548 105.684 131.572 100.309C118.596 94.9342 106.806 87.0563 96.875 77.1251C86.9437 67.1938 79.0659 55.4038 73.6911 42.428C68.3164 29.4522 65.55 15.5449 65.55 1.5L279.45 1.50001Z" fill="white"/>
<path d="M31.0499 13.575C31.0499 50.6324 45.7709 86.172 71.9744 112.375C98.1779 138.579 133.718 153.3 170.775 153.3C207.832 153.3 243.372 138.579 269.575 112.376C295.779 86.172 310.5 50.6324 310.5 13.575L224.261 13.575C224.261 27.7603 218.625 41.3646 208.595 51.3951C198.564 61.4256 184.96 67.0606 170.775 67.0606C156.59 67.0606 142.985 61.4256 132.955 51.3951C122.924 41.3646 117.289 27.7603 117.289 13.575H31.0499Z" fill="white"/>
<path d="M345 1.50008C345 24.1531 340.538 46.5843 331.869 67.513C323.2 88.4416 310.494 107.458 294.476 123.476C278.458 139.494 259.442 152.2 238.513 160.869C217.584 169.538 195.153 174 172.5 174C149.847 174 127.416 169.538 106.487 160.869C85.5584 152.2 66.5422 139.494 50.5241 123.476C34.506 107.458 21.7997 88.4416 13.1308 67.513C4.46184 46.5843 -1.98039e-06 24.1531 0 1.50006L34.5 1.50006C34.5 19.6225 38.0695 37.5674 45.0046 54.3104C51.9398 71.0533 62.1048 86.2663 74.9193 99.0808C87.7337 111.895 102.947 122.06 119.69 128.995C136.433 135.931 154.378 139.5 172.5 139.5C190.622 139.5 208.567 135.931 225.31 128.995C242.053 122.06 257.266 111.895 270.081 99.0808C282.895 86.2663 293.06 71.0533 299.995 54.3104C306.931 37.5675 310.5 19.6225 310.5 1.50008H345Z" fill="#1E1E1E"/>
<path d="M241.5 1.50006C241.5 19.8 234.23 37.3504 221.29 50.2904C208.35 63.2304 190.8 70.5001 172.5 70.5001C154.2 70.5001 136.65 63.2304 123.71 50.2904C110.77 37.3504 103.5 19.8 103.5 1.50007L131.1 1.50007C131.1 12.48 135.462 23.0103 143.226 30.7743C150.99 38.5383 161.52 42.9001 172.5 42.9001C183.48 42.9001 194.01 38.5383 201.774 30.7743C209.538 23.0103 213.9 12.48 213.9 1.50006H241.5Z" fill="#1E1E1E"/>
<rect x="220" y="1" width="117" height="21" fill="#1E1E1E"/>
<rect x="7" y="1" width="117" height="21" fill="#1E1E1E"/>
<path d="M0 0L345 0V2L0 2L0 0Z" fill="#1E1E1E"/>
</svg>
