<svg width="308" height="80" viewBox="0 0 308 80" fill="none" xmlns="http://www.w3.org/2000/svg">
<circle cx="39.9999" cy="40" r="19.84" fill="#2B2B2B"/>
<path d="M65.6 37.76C65.6 30.8856 62.8692 24.2927 58.0082 19.4318C53.1473 14.5708 46.5544 11.84 39.68 11.84C32.8056 11.84 26.2127 14.5708 21.3518 19.4318C16.4909 24.2927 13.76 30.8856 13.76 37.76L29.758 37.76C29.758 35.1285 30.8034 32.6048 32.6641 30.7441C34.5248 28.8834 37.0485 27.838 39.68 27.838C42.3115 27.838 44.8352 28.8834 46.6959 30.7441C48.5566 32.6048 49.602 35.1285 49.602 37.76H65.6Z" fill="#1F1F1F"/>
<path d="M13.7599 42.24C13.7599 49.1144 16.4907 55.7072 21.3516 60.5682C26.2126 65.4291 32.8054 68.16 39.6799 68.16C46.5543 68.16 53.1471 65.4291 58.0081 60.5682C62.869 55.7072 65.5999 49.1144 65.5999 42.24L49.6018 42.24C49.6018 44.8714 48.5565 47.3951 46.6957 49.2559C44.835 51.1166 42.3113 52.1619 39.6799 52.1619C37.0484 52.1619 34.5247 51.1166 32.664 49.2559C30.8032 47.3951 29.7579 44.8714 29.7579 42.24H13.7599Z" fill="#2B2B2B"/>
<path fill-rule="evenodd" clip-rule="evenodd" d="M40 72C57.6731 72 72 57.6731 72 40C72 22.3269 57.6731 8 40 8C22.3269 8 8 22.3269 8 40C8 57.6731 22.3269 72 40 72ZM14.6861 43.84C16.5388 56.1568 27.1666 65.6 40 65.6C52.8334 65.6 63.4612 56.1568 65.3139 43.84H52.2141C50.583 49.0331 45.7315 52.8 40.0001 52.8C34.2687 52.8 29.4171 49.0331 27.7861 43.84H14.6861ZM27.7861 36.16C29.4171 30.9669 34.2687 27.2 40.0001 27.2C45.7315 27.2 50.583 30.9669 52.2141 36.16H65.3139C63.4612 23.8432 52.8334 14.4 40 14.4C27.1666 14.4 16.5388 23.8432 14.6861 36.16H27.7861ZM40.0001 47.68C35.7585 47.68 32.3201 44.2416 32.3201 40C32.3201 35.7585 35.7585 32.32 40.0001 32.32C44.2416 32.32 47.6801 35.7585 47.6801 40C47.6801 44.2416 44.2416 47.68 40.0001 47.68Z" fill="#1E1E1E"/>
<circle cx="116" cy="40" r="19.84" fill="#2B2B2B"/>
<path d="M141.6 37.76C141.6 30.8856 138.869 24.2927 134.008 19.4318C129.147 14.5708 122.554 11.84 115.68 11.84C108.805 11.84 102.213 14.5708 97.3516 19.4318C92.4906 24.2927 89.7598 30.8856 89.7598 37.76L105.758 37.76C105.758 35.1285 106.803 32.6048 108.664 30.7441C110.525 28.8834 113.048 27.838 115.68 27.838C118.311 27.838 120.835 28.8834 122.696 30.7441C124.556 32.6048 125.602 35.1285 125.602 37.76H141.6Z" fill="#1F1F1F"/>
<path d="M89.7596 42.24C89.7596 49.1144 92.4905 55.7072 97.3514 60.5682C102.212 65.4291 108.805 68.16 115.68 68.16C122.554 68.16 129.147 65.4291 134.008 60.5682C138.869 55.7072 141.6 49.1144 141.6 42.24L125.602 42.24C125.602 44.8714 124.556 47.3951 122.696 49.2559C120.835 51.1166 118.311 52.1619 115.68 52.1619C113.048 52.1619 110.524 51.1166 108.664 49.2559C106.803 47.3951 105.758 44.8714 105.758 42.24H89.7596Z" fill="#2B2B2B"/>
<path fill-rule="evenodd" clip-rule="evenodd" d="M116 72C133.673 72 148 57.6731 148 40C148 22.3269 133.673 8 116 8C98.3269 8 84 22.3269 84 40C84 57.6731 98.3269 72 116 72ZM90.6861 43.84C92.5388 56.1568 103.167 65.6 116 65.6C128.833 65.6 139.461 56.1568 141.314 43.84H128.214C126.583 49.0331 121.731 52.8 116 52.8C110.269 52.8 105.417 49.0331 103.786 43.84H90.6861ZM103.786 36.16C105.417 30.9669 110.269 27.2 116 27.2C121.731 27.2 126.583 30.9669 128.214 36.16H141.314C139.461 23.8432 128.833 14.4 116 14.4C103.167 14.4 92.5388 23.8432 90.6861 36.16H103.786ZM116 47.68C111.759 47.68 108.32 44.2416 108.32 40C108.32 35.7585 111.759 32.32 116 32.32C120.242 32.32 123.68 35.7585 123.68 40C123.68 44.2416 120.242 47.68 116 47.68Z" fill="#1E1E1E"/>
<circle cx="192" cy="40" r="19.84" fill="#2B2B2B"/>
<path d="M217.6 37.76C217.6 30.8856 214.869 24.2927 210.008 19.4318C205.147 14.5708 198.554 11.84 191.68 11.84C184.805 11.84 178.213 14.5708 173.352 19.4318C168.491 24.2927 165.76 30.8856 165.76 37.76L181.758 37.76C181.758 35.1285 182.803 32.6048 184.664 30.7441C186.525 28.8834 189.048 27.838 191.68 27.838C194.311 27.838 196.835 28.8834 198.696 30.7441C200.556 32.6048 201.602 35.1285 201.602 37.76H217.6Z" fill="#1F1F1F"/>
<path d="M165.76 42.24C165.76 49.1144 168.49 55.7072 173.351 60.5682C178.212 65.4291 184.805 68.16 191.68 68.16C198.554 68.16 205.147 65.4291 210.008 60.5682C214.869 55.7072 217.6 49.1144 217.6 42.24L201.602 42.24C201.602 44.8714 200.556 47.3951 198.696 49.2559C196.835 51.1166 194.311 52.1619 191.68 52.1619C189.048 52.1619 186.524 51.1166 184.664 49.2559C182.803 47.3951 181.758 44.8714 181.758 42.24H165.76Z" fill="#2B2B2B"/>
<path fill-rule="evenodd" clip-rule="evenodd" d="M192 72C209.673 72 224 57.6731 224 40C224 22.3269 209.673 8 192 8C174.327 8 160 22.3269 160 40C160 57.6731 174.327 72 192 72ZM166.686 43.84C168.539 56.1568 179.167 65.6 192 65.6C204.833 65.6 215.461 56.1568 217.314 43.84H204.214C202.583 49.0331 197.731 52.8 192 52.8C186.269 52.8 181.417 49.0331 179.786 43.84H166.686ZM179.786 36.16C181.417 30.9669 186.269 27.2 192 27.2C197.731 27.2 202.583 30.9669 204.214 36.16H217.314C215.461 23.8432 204.833 14.4 192 14.4C179.167 14.4 168.539 23.8432 166.686 36.16H179.786ZM192 47.68C187.759 47.68 184.32 44.2416 184.32 40C184.32 35.7585 187.759 32.32 192 32.32C196.242 32.32 199.68 35.7585 199.68 40C199.68 44.2416 196.242 47.68 192 47.68Z" fill="#1E1E1E"/>
<circle cx="268" cy="40" r="19.84" fill="#2B2B2B"/>
<path d="M293.6 37.76C293.6 30.8856 290.869 24.2927 286.008 19.4318C281.147 14.5708 274.554 11.84 267.68 11.84C260.805 11.84 254.213 14.5708 249.352 19.4318C244.491 24.2927 241.76 30.8856 241.76 37.76L257.758 37.76C257.758 35.1285 258.803 32.6048 260.664 30.7441C262.525 28.8834 265.048 27.838 267.68 27.838C270.311 27.838 272.835 28.8834 274.696 30.7441C276.556 32.6048 277.602 35.1285 277.602 37.76H293.6Z" fill="#1F1F1F"/>
<path d="M241.76 42.24C241.76 49.1144 244.49 55.7072 249.351 60.5682C254.212 65.4291 260.805 68.16 267.68 68.16C274.554 68.16 281.147 65.4291 286.008 60.5682C290.869 55.7072 293.6 49.1144 293.6 42.24L277.602 42.24C277.602 44.8714 276.556 47.3951 274.696 49.2559C272.835 51.1166 270.311 52.1619 267.68 52.1619C265.048 52.1619 262.524 51.1166 260.664 49.2559C258.803 47.3951 257.758 44.8714 257.758 42.24H241.76Z" fill="#2B2B2B"/>
<path fill-rule="evenodd" clip-rule="evenodd" d="M268 72C285.673 72 300 57.6731 300 40C300 22.3269 285.673 8 268 8C250.327 8 236 22.3269 236 40C236 57.6731 250.327 72 268 72ZM242.686 43.84C244.539 56.1568 255.167 65.6 268 65.6C280.833 65.6 291.461 56.1568 293.314 43.84H280.214C278.583 49.0331 273.731 52.8 268 52.8C262.269 52.8 257.417 49.0331 255.786 43.84H242.686ZM255.786 36.16C257.417 30.9669 262.269 27.2 268 27.2C273.731 27.2 278.583 30.9669 280.214 36.16H293.314C291.461 23.8432 280.833 14.4 268 14.4C255.167 14.4 244.539 23.8432 242.686 36.16H255.786ZM268 47.68C263.759 47.68 260.32 44.2416 260.32 40C260.32 35.7585 263.759 32.32 268 32.32C272.242 32.32 275.68 35.7585 275.68 40C275.68 44.2416 272.242 47.68 268 47.68Z" fill="#1E1E1E"/>
</svg>
